<svg xmlns="http://www.w3.org/2000/svg" version="1.1" xmlns:xlink="http://www.w3.org/1999/xlink" xmlns:svgjs="http://svgjs.dev/svgjs" width="1000" height="625" viewBox="0 0 1000 625"><g transform="matrix(1,0,0,1,0,0)"><svg viewBox="0 0 512 320" data-background-color="#010c80" preserveAspectRatio="xMidYMid meet" height="625" width="1000" xmlns="http://www.w3.org/2000/svg" xmlns:xlink="http://www.w3.org/1999/xlink"><g id="tight-bounds" transform="matrix(1,0,0,1,0,0)"><svg viewBox="0 0 512 320" height="320" width="512"><g><svg></svg></g><g><svg viewBox="0 0 512 320" height="320" width="512"><g><path xmlns="http://www.w3.org/2000/svg" d="M96 160c0-88.366 71.634-160 160-160 88.366 0 160 71.634 160 160 0 88.366-71.634 160-160 160-88.366 0-160-71.634-160-160zM256 315.644c85.96 0 155.644-69.684 155.644-155.644 0-85.96-69.684-155.644-155.644-155.644-85.96 0-155.644 69.684-155.644 155.644 0 85.96 69.684 155.644 155.644 155.644z" fill="#77d4fc" fill-rule="nonzero" stroke="none" stroke-width="1" stroke-linecap="butt" stroke-linejoin="miter" stroke-miterlimit="10" stroke-dasharray="" stroke-dashoffset="0" font-family="none" font-weight="none" font-size="none" text-anchor="none" style="mix-blend-mode: normal" data-fill-palette-color="tertiary"></path></g><g transform="matrix(1,0,0,1,128,104.58228658266663)"><svg viewBox="0 0 256 110.83542683466675" height="110.83542683466675" width="256"><g><svg viewBox="0 0 256 110.83542683466675" height="110.83542683466675" width="256"><g><svg viewBox="0 0 256 110.83542683466675" height="110.83542683466675" width="256"><g transform="matrix(1,0,0,1,0,47.30998888236849)"><svg viewBox="0 0 256 63.52543795229825" height="63.52543795229825" width="256"><g><svg viewBox="0 0 256 63.52543795229825" height="63.52543795229825" width="256"><g><svg viewBox="0 0 256 39.07024265644956" height="39.07024265644956" width="256"><g transform="matrix(1,0,0,1,0,0)"><svg width="256" viewBox="3.5399999618530273 -35.0099983215332 229.3800048828125 35.0099983215332" height="39.07024265644956" data-palette-color="#77d4fc"><path d="M32.47-20.7L32.47-14.31 12.43-14.31 12.43-20.7 32.47-20.7ZM35.33-6.35L35.33 0 12.43 0Q11.11 0 9.55-0.46 7.98-0.93 6.65-1.99 5.32-3.05 4.43-4.75 3.54-6.45 3.54-8.91L3.54-8.91 3.54-31.81Q3.54-32.47 3.78-33.06 4.03-33.64 4.46-34.08 4.88-34.52 5.47-34.77 6.05-35.01 6.74-35.01L6.74-35.01 35.33-35.01 35.33-28.66 9.89-28.66 9.89-8.91Q9.89-7.67 10.55-7.01 11.21-6.35 12.48-6.35L12.48-6.35 35.33-6.35ZM71.41-33.11L71.41-33.11Q71.77-32.25 71.63-31.31 71.48-30.37 70.85-29.71L70.85-29.71 49.9-6.35 71.36-6.35 71.36 0 42.75 0Q41.82 0 41.03-0.52 40.23-1.05 39.84-1.9L39.84-1.9Q39.43-2.76 39.58-3.69 39.74-4.61 40.35-5.3L40.35-5.3 61.35-28.66 39.84-28.66 39.84-35.01 68.5-35.01Q69.43-35.01 70.22-34.48 71.02-33.96 71.41-33.11ZM98.43-20.36L98.43-14.65 75.53-14.65 75.53-20.36 98.43-20.36ZM139.93-27.29L139.93-23.24Q139.93-21.07 139.4-19.36 138.86-17.65 137.94-16.35 137.03-15.04 135.83-14.11 134.64-13.18 133.33-12.59 132.02-11.99 130.69-11.72 129.36-11.45 128.19-11.45L128.19-11.45 141.45 0 131.63 0 118.4-11.45 113.84-11.45 113.84-17.8 128.19-17.8Q129.39-17.9 130.38-18.3 131.36-18.7 132.08-19.38 132.81-20.07 133.2-21.03 133.59-22 133.59-23.24L133.59-23.24 133.59-27.25Q133.59-27.78 133.45-28.06 133.32-28.34 133.11-28.48 132.9-28.61 132.67-28.64 132.44-28.66 132.24-28.66L132.24-28.66 111.3-28.66 111.3 0 104.95 0 104.95-31.81Q104.95-32.47 105.19-33.06 105.44-33.64 105.86-34.08 106.29-34.52 106.88-34.77 107.46-35.01 108.15-35.01L108.15-35.01 132.24-35.01Q134.37-35.01 135.83-34.24 137.3-33.47 138.21-32.31 139.13-31.15 139.53-29.81 139.93-28.47 139.93-27.29L139.93-27.29ZM152.7-35.01L152.7 0 146.35 0 146.35-35.01 152.7-35.01ZM195.06-20.36L195.06-14.65Q195.06-11.45 193.95-8.76 192.83-6.08 190.88-4.14 188.93-2.2 186.24-1.1 183.56 0 180.41 0L180.41 0 163.27 0Q162.59 0 162-0.24 161.41-0.49 160.99-0.92 160.56-1.34 160.31-1.93 160.07-2.51 160.07-3.2L160.07-3.2 160.07-31.81Q160.07-32.47 160.31-33.06 160.56-33.64 160.99-34.08 161.41-34.52 162-34.77 162.59-35.01 163.27-35.01L163.27-35.01 180.41-35.01Q183.56-35.01 186.24-33.91 188.93-32.81 190.88-30.87 192.83-28.93 193.95-26.23 195.06-23.54 195.06-20.36L195.06-20.36ZM188.71-14.65L188.71-20.36Q188.71-22.22 188.11-23.75 187.51-25.29 186.41-26.38 185.31-27.47 183.79-28.06 182.26-28.66 180.41-28.66L180.41-28.66 166.42-28.66 166.42-6.35 180.41-6.35Q182.26-6.35 183.79-6.95 185.31-7.54 186.41-8.63 187.51-9.72 188.11-11.24 188.71-12.77 188.71-14.65L188.71-14.65ZM230.06-20.7L230.06-14.31 210.02-14.31 210.02-20.7 230.06-20.7ZM232.92-6.35L232.92 0 210.02 0Q208.7 0 207.14-0.46 205.58-0.93 204.25-1.99 202.91-3.05 202.02-4.75 201.13-6.45 201.13-8.91L201.13-8.91 201.13-31.81Q201.13-32.47 201.38-33.06 201.62-33.64 202.05-34.08 202.48-34.52 203.06-34.77 203.65-35.01 204.33-35.01L204.33-35.01 232.92-35.01 232.92-28.66 207.48-28.66 207.48-8.91Q207.48-7.67 208.14-7.01 208.8-6.35 210.07-6.35L210.07-6.35 232.92-6.35Z" opacity="1" transform="matrix(1,0,0,1,0,0)" fill="#77d4fc" class="undefined-text-0" data-fill-palette-color="primary" id="text-0"></path></svg></g></svg></g><g transform="matrix(1,0,0,1,0,44.7715287458493)"><svg viewBox="0 0 256 18.75390920644894" height="18.75390920644894" width="256"><g transform="matrix(1,0,0,1,0,0)"><svg width="256" viewBox="1.0052632093429565 -40 552.8047485351562 40.5" height="18.75390920644894" data-palette-color="#4b91f1"><path d="M15.75 0.25L15.75 0.25Q14.75 0.25 13.63-0.08 12.5-0.4 12-1.3L12-1.3Q10.85-5.2 9.6-9.3 8.35-13.4 7.1-17.35L7.1-17.35Q5.7-22 4.1-27.03 2.5-32.05 1.1-36.65L1.1-36.65Q0.8-37.75 1.45-38.58 2.1-39.4 3.3-39.8L3.3-39.8Q4.05-40 4.6-40L4.6-40Q6.3-40 6.8-38.3L6.8-38.3 10.5-26.45Q11-24.65 11.68-22.5 12.35-20.35 13.05-18.1 13.75-15.85 14.45-13.63 15.15-11.4 15.75-9.5L15.75-9.5Q16.7-12.65 17.82-16.32 18.95-20 20.13-23.8 21.3-27.6 22.45-31.33 23.6-35.05 24.6-38.3L24.6-38.3Q25.15-40 26.75-40L26.75-40Q27.35-40 28.15-39.8L28.15-39.8Q30.9-39.05 30.3-36.65L30.3-36.65Q27.6-27.9 24.85-19 22.1-10.1 19.4-1.3L19.4-1.3Q19-0.3 17.93-0.03 16.85 0.25 15.75 0.25ZM41.2-37.55L41.2-2.1Q41.2 0.3 38.2 0.3L38.2 0.3Q35.25 0.3 35.25-2.1L35.25-2.1 35.25-37.55Q35.25-39.95 38.2-39.95L38.2-39.95Q41.2-39.95 41.2-37.55L41.2-37.55ZM72.8-0.6L63.34-16.45 59.5-16.45Q58.65-16.45 58.17-17.13 57.7-17.8 57.7-18.95L57.7-18.95Q57.7-21.5 59.8-21.5L59.8-21.5 65.65-21.5Q67.5-21.5 68.25-22.55 69-23.6 69-24.85L69-24.85 69-31.3Q69-32.55 68.25-33.6 67.5-34.65 65.65-34.65L65.65-34.65 55.09-34.65 55.09-2.05Q55.09 0.35 52.15 0.35L52.15 0.35Q49.2 0.35 49.2-2.05L49.2-2.05 49.2-36.7Q49.2-38.5 50.12-39.1 51.05-39.7 52.34-39.7L52.34-39.7 66.9-39.7Q68.19-39.7 69.59-39.15 71-38.6 72.3-37.75L72.3-37.75 72.25-37.75Q73.55-36.8 74.25-35.27 74.94-33.75 74.94-31.75L74.94-31.75 74.94-24.45Q74.94-20.4 72.25-18.4L72.25-18.4Q71.69-18 71.07-17.65 70.44-17.3 69.8-16.95L69.8-16.95 77.8-3.75Q77.94-3.5 78.09-3.1 78.25-2.7 78.25-2.45L78.25-2.45Q78.25-1.25 76.55-0.15L76.55-0.15 76.55-0.2Q75.4 0.5 74.59 0.5L74.59 0.5Q73.44 0.5 72.75-0.65L72.75-0.65 72.8-0.6ZM96.24-34.65L96.24-2Q96.24 0.4 93.24 0.4L93.24 0.4Q90.29 0.4 90.29-2L90.29-2 90.29-34.65 81.54-34.65Q79.74-34.65 79.64-37.2L79.64-37.2Q79.64-39.7 81.54-39.7L81.54-39.7 104.99-39.7Q106.89-39.7 106.79-37.2L106.79-37.2Q106.79-34.65 104.99-34.65L104.99-34.65 96.24-34.65ZM138.19-37.55L138.19-8Q138.19-3.95 135.49-1.95L135.49-1.95Q134.19-1 132.81-0.48 131.44 0.05 130.14 0.05L130.14 0.05 119.24 0.05Q117.94 0.05 116.57-0.48 115.19-1 113.89-1.95L113.89-1.95Q112.59-2.95 111.89-4.42 111.19-5.9 111.19-8L111.19-8 111.19-37.55Q111.19-39.95 114.14-39.95L114.14-39.95Q117.14-39.95 117.14-37.55L117.14-37.55 117.14-8.4Q117.14-7.1 117.89-6.05 118.64-5 120.49-5L120.49-5 128.89-5Q130.74-5 131.49-6.05 132.24-7.1 132.24-8.4L132.24-8.4 132.24-37.55Q132.24-39.95 135.19-39.95L135.19-39.95Q138.19-39.95 138.19-37.55L138.19-37.55ZM169.99-1.2L158.99-34.8 148.04-1.2 148.04-1.25Q147.74-0.5 147.21-0.03 146.69 0.45 145.94 0.45L145.94 0.45Q145.54 0.45 145.16 0.38 144.79 0.3 144.39 0.2L144.39 0.2 144.44 0.2Q141.59-0.7 142.34-3L142.34-3 153.74-37.65Q153.99-38.45 154.61-39 155.24-39.55 156.09-39.65L156.09-39.65Q156.94-39.8 157.74-39.88 158.54-39.95 158.99-39.95L158.99-39.95Q159.44-39.95 160.24-39.88 161.04-39.8 161.89-39.7L161.89-39.7Q162.59-39.6 163.26-38.95 163.94-38.3 164.29-37.65L164.29-37.65Q167.09-29.05 169.96-20.33 172.84-11.6 175.64-3L175.64-3Q176.34-0.7 173.54 0.2L173.54 0.2Q173.14 0.3 172.81 0.38 172.49 0.45 172.09 0.45L172.09 0.45Q171.39 0.45 170.81-0.03 170.24-0.5 169.99-1.25L169.99-1.25 169.99-1.2ZM162.74-12L162.74-12Q162.74-10.4 161.61-9.28 160.49-8.15 158.89-8.15L158.89-8.15Q157.29-8.15 156.19-9.28 155.09-10.4 155.09-12L155.09-12Q155.09-13.6 156.19-14.73 157.29-15.85 158.89-15.85L158.89-15.85Q160.49-15.85 161.61-14.73 162.74-13.6 162.74-12ZM202.74 0.05L183.29 0.05Q181.44 0.05 180.79-0.9 180.14-1.85 180.14-3L180.14-3 180.14-37.55Q180.14-39.95 183.04-39.95L183.04-39.95Q186.04-39.95 186.04-37.55L186.04-37.55 186.04-5 202.74-5Q204.54-5 204.54-2.55L204.54-2.55Q204.64 0.05 202.74 0.05L202.74 0.05ZM237.48-34.65L237.48-2Q237.48 0.4 234.48 0.4L234.48 0.4Q231.53 0.4 231.53-2L231.53-2 231.53-34.65 222.78-34.65Q220.98-34.65 220.88-37.2L220.88-37.2Q220.88-39.7 222.78-39.7L222.78-39.7 246.23-39.7Q248.13-39.7 248.03-37.2L248.03-37.2Q248.03-34.65 246.23-34.65L246.23-34.65 237.48-34.65ZM276.08-0.6L266.63-16.45 262.78-16.45Q261.93-16.45 261.45-17.13 260.98-17.8 260.98-18.95L260.98-18.95Q260.98-21.5 263.08-21.5L263.08-21.5 268.93-21.5Q270.78-21.5 271.53-22.55 272.28-23.6 272.28-24.85L272.28-24.85 272.28-31.3Q272.28-32.55 271.53-33.6 270.78-34.65 268.93-34.65L268.93-34.65 258.38-34.65 258.38-2.05Q258.38 0.35 255.43 0.35L255.43 0.35Q252.48 0.35 252.48-2.05L252.48-2.05 252.48-36.7Q252.48-38.5 253.4-39.1 254.33-39.7 255.63-39.7L255.63-39.7 270.18-39.7Q271.48-39.7 272.88-39.15 274.28-38.6 275.58-37.75L275.58-37.75 275.53-37.75Q276.83-36.8 277.53-35.27 278.23-33.75 278.23-31.75L278.23-31.75 278.23-24.45Q278.23-20.4 275.53-18.4L275.53-18.4Q274.98-18 274.35-17.65 273.73-17.3 273.08-16.95L273.08-16.95 281.08-3.75Q281.23-3.5 281.38-3.1 281.53-2.7 281.53-2.45L281.53-2.45Q281.53-1.25 279.83-0.15L279.83-0.15 279.83-0.2Q278.68 0.5 277.88 0.5L277.88 0.5Q276.73 0.5 276.03-0.65L276.03-0.65 276.08-0.6ZM310.32-1.2L299.32-34.8 288.38-1.2 288.38-1.25Q288.07-0.5 287.55-0.03 287.03 0.45 286.28 0.45L286.28 0.45Q285.88 0.45 285.5 0.38 285.13 0.3 284.73 0.2L284.73 0.2 284.78 0.2Q281.93-0.7 282.68-3L282.68-3 294.07-37.65Q294.32-38.45 294.95-39 295.57-39.55 296.43-39.65L296.43-39.65Q297.28-39.8 298.07-39.88 298.88-39.95 299.32-39.95L299.32-39.95Q299.78-39.95 300.57-39.88 301.38-39.8 302.23-39.7L302.23-39.7Q302.93-39.6 303.6-38.95 304.28-38.3 304.63-37.65L304.63-37.65Q307.43-29.05 310.3-20.33 313.18-11.6 315.98-3L315.98-3Q316.68-0.7 313.88 0.2L313.88 0.2Q313.48 0.3 313.15 0.38 312.82 0.45 312.43 0.45L312.43 0.45Q311.73 0.45 311.15-0.03 310.57-0.5 310.32-1.25L310.32-1.25 310.32-1.2ZM303.07-12L303.07-12Q303.07-10.4 301.95-9.28 300.82-8.15 299.23-8.15L299.23-8.15Q297.63-8.15 296.53-9.28 295.43-10.4 295.43-12L295.43-12Q295.43-13.6 296.53-14.73 297.63-15.85 299.23-15.85L299.23-15.85Q300.82-15.85 301.95-14.73 303.07-13.6 303.07-12ZM332.22 0.25L332.22 0.25Q331.22 0.25 330.1-0.08 328.97-0.4 328.47-1.3L328.47-1.3Q327.32-5.2 326.07-9.3 324.82-13.4 323.57-17.35L323.57-17.35Q322.17-22 320.57-27.03 318.97-32.05 317.57-36.65L317.57-36.65Q317.27-37.75 317.92-38.58 318.57-39.4 319.77-39.8L319.77-39.8Q320.52-40 321.07-40L321.07-40Q322.77-40 323.27-38.3L323.27-38.3 326.97-26.45Q327.47-24.65 328.15-22.5 328.82-20.35 329.52-18.1 330.22-15.85 330.92-13.63 331.62-11.4 332.22-9.5L332.22-9.5Q333.17-12.65 334.3-16.32 335.42-20 336.6-23.8 337.77-27.6 338.92-31.33 340.07-35.05 341.07-38.3L341.07-38.3Q341.62-40 343.22-40L343.22-40Q343.82-40 344.62-39.8L344.62-39.8Q347.37-39.05 346.77-36.65L346.77-36.65Q344.07-27.9 341.32-19 338.57-10.1 335.87-1.3L335.87-1.3Q335.47-0.3 334.4-0.03 333.32 0.25 332.22 0.25ZM373.02 0.05L354.72 0.05Q352.87 0.05 352.22-0.9 351.57-1.85 351.57-3L351.57-3 351.57-36.7Q351.57-37.85 352.22-38.78 352.87-39.7 354.72-39.7L354.72-39.7 372.12-39.7Q373.97-39.7 374.07-37.2L374.07-37.2Q374.17-34.65 372.12-34.65L372.12-34.65 357.47-34.65 357.47-5 373.02-5Q374.87-5 374.92-2.55L374.92-2.55Q375.02 0.05 373.02 0.05L373.02 0.05ZM370.27-20.65L370.27-20.65Q370.27-18.9 369.05-17.7 367.82-16.5 366.07-16.5L366.07-16.5Q364.37-16.5 363.17-17.7 361.97-18.9 361.97-20.65L361.97-20.65Q361.97-22.4 363.17-23.6 364.37-24.8 366.07-24.8L366.07-24.8Q367.82-24.8 369.05-23.6 370.27-22.4 370.27-20.65ZM402.92 0.05L383.47 0.05Q381.62 0.05 380.97-0.9 380.32-1.85 380.32-3L380.32-3 380.32-37.55Q380.32-39.95 383.22-39.95L383.22-39.95Q386.22-39.95 386.22-37.55L386.22-37.55 386.22-5 402.92-5Q404.72-5 404.72-2.55L404.72-2.55Q404.82 0.05 402.92 0.05L402.92 0.05ZM442.06-14.7L435.16-14.7Q434.31-14.7 433.84-15.38 433.36-16.05 433.36-17.2L433.36-17.2Q433.36-19.75 435.46-19.75L435.46-19.75 440.76-19.75Q442.61-19.75 443.39-20.8 444.16-21.85 444.16-23.1L444.16-23.1 444.16-31.3Q444.16-32.55 443.39-33.6 442.61-34.65 440.76-34.65L440.76-34.65 430.26-34.65 430.26-2Q430.26 0.4 427.26 0.4L427.26 0.4Q424.36 0.4 424.36-2L424.36-2 424.36-36.7Q424.36-38.5 425.26-39.1 426.16-39.7 427.46-39.7L427.46-39.7 442.06-39.7Q443.31-39.7 444.71-39.15 446.11-38.6 447.41-37.75L447.41-37.75 447.36-37.75Q448.66-36.8 449.36-35.27 450.06-33.75 450.06-31.75L450.06-31.75 450.06-22.7Q450.06-18.65 447.36-16.65L447.36-16.65Q446.06-15.7 444.71-15.2 443.36-14.7 442.06-14.7L442.06-14.7ZM481.81-1.2L470.81-34.8 459.86-1.2 459.86-1.25Q459.56-0.5 459.04-0.03 458.51 0.45 457.76 0.45L457.76 0.45Q457.36 0.45 456.99 0.38 456.61 0.3 456.21 0.2L456.21 0.2 456.26 0.2Q453.41-0.7 454.16-3L454.16-3 465.56-37.65Q465.81-38.45 466.44-39 467.06-39.55 467.91-39.65L467.91-39.65Q468.76-39.8 469.56-39.88 470.36-39.95 470.81-39.95L470.81-39.95Q471.26-39.95 472.06-39.88 472.86-39.8 473.71-39.7L473.71-39.7Q474.41-39.6 475.09-38.95 475.76-38.3 476.11-37.65L476.11-37.65Q478.91-29.05 481.79-20.33 484.66-11.6 487.46-3L487.46-3Q488.16-0.7 485.36 0.2L485.36 0.2Q484.96 0.3 484.64 0.38 484.31 0.45 483.91 0.45L483.91 0.45Q483.21 0.45 482.64-0.03 482.06-0.5 481.81-1.25L481.81-1.25 481.81-1.2ZM474.56-12L474.56-12Q474.56-10.4 473.44-9.28 472.31-8.15 470.71-8.15L470.71-8.15Q469.11-8.15 468.01-9.28 466.91-10.4 466.91-12L466.91-12Q466.91-13.6 468.01-14.73 469.11-15.85 470.71-15.85L470.71-15.85Q472.31-15.85 473.44-14.73 474.56-13.6 474.56-12ZM501.26-22.85L510.91-22.85Q512.21-22.85 513.61-22.3 515.01-21.75 516.31-20.85L516.31-20.85 516.26-20.85Q517.56-19.95 518.26-18.4 518.96-16.85 518.96-14.85L518.96-14.85 518.96-8Q518.96-3.95 516.26-1.95L516.26-1.95Q514.96-1 513.58-0.48 512.21 0.05 510.91 0.05L510.91 0.05 500.01 0.05Q498.71 0.05 497.33-0.48 495.96-1 494.66-1.95L494.66-1.95Q491.96-3.95 491.96-8L491.96-8 491.96-11.3Q491.96-13.65 494.91-13.65L494.91-13.65Q497.91-13.65 497.91-11.3L497.91-11.3 497.91-8.4Q497.91-7.1 498.66-6.05 499.41-5 501.26-5L501.26-5 509.66-5Q511.51-5 512.26-6.05 513.01-7.1 513.01-8.4L513.01-8.4 513.01-14.45Q513.01-15.7 512.26-16.78 511.51-17.85 509.66-17.85L509.66-17.85 500.01-17.85Q497.41-17.85 494.66-19.75L494.66-19.75Q491.96-21.85 491.96-25.8L491.96-25.8 491.96-31.75Q491.96-33.75 492.66-35.27 493.36-36.8 494.66-37.75L494.66-37.75 494.61-37.75Q495.91-38.6 497.31-39.15 498.71-39.7 500.01-39.7L500.01-39.7 510.91-39.7Q512.21-39.7 513.61-39.15 515.01-38.6 516.31-37.75L516.31-37.75 516.26-37.75Q517.56-36.8 518.26-35.27 518.96-33.75 518.96-31.75L518.96-31.75 518.96-28.8Q518.96-26.45 515.96-26.45L515.96-26.45Q513.01-26.45 513.01-28.8L513.01-28.8 513.01-31.3Q513.01-32.55 512.26-33.6 511.51-34.65 509.66-34.65L509.66-34.65 501.26-34.65Q499.41-34.65 498.66-33.6 497.91-32.55 497.91-31.3L497.91-31.3 497.91-26.2Q497.91-24.9 498.66-23.88 499.41-22.85 501.26-22.85L501.26-22.85ZM536.11-22.85L545.76-22.85Q547.06-22.85 548.46-22.3 549.86-21.75 551.16-20.85L551.16-20.85 551.11-20.85Q552.41-19.95 553.11-18.4 553.81-16.85 553.81-14.85L553.81-14.85 553.81-8Q553.81-3.95 551.11-1.95L551.11-1.95Q549.81-1 548.43-0.48 547.06 0.05 545.76 0.05L545.76 0.05 534.86 0.05Q533.56 0.05 532.18-0.48 530.81-1 529.51-1.95L529.51-1.95Q526.81-3.95 526.81-8L526.81-8 526.81-11.3Q526.81-13.65 529.76-13.65L529.76-13.65Q532.76-13.65 532.76-11.3L532.76-11.3 532.76-8.4Q532.76-7.1 533.51-6.05 534.26-5 536.11-5L536.11-5 544.51-5Q546.36-5 547.11-6.05 547.86-7.1 547.86-8.4L547.86-8.4 547.86-14.45Q547.86-15.7 547.11-16.78 546.36-17.85 544.51-17.85L544.51-17.85 534.86-17.85Q532.26-17.85 529.51-19.75L529.51-19.75Q526.81-21.85 526.81-25.8L526.81-25.8 526.81-31.75Q526.81-33.75 527.51-35.27 528.21-36.8 529.51-37.75L529.51-37.75 529.46-37.75Q530.76-38.6 532.16-39.15 533.56-39.7 534.86-39.7L534.86-39.7 545.76-39.7Q547.06-39.7 548.46-39.15 549.86-38.6 551.16-37.75L551.16-37.75 551.11-37.75Q552.41-36.8 553.11-35.27 553.81-33.75 553.81-31.75L553.81-31.75 553.81-28.8Q553.81-26.45 550.81-26.45L550.81-26.45Q547.86-26.45 547.86-28.8L547.86-28.8 547.86-31.3Q547.86-32.55 547.11-33.6 546.36-34.65 544.51-34.65L544.51-34.65 536.11-34.65Q534.26-34.65 533.51-33.6 532.76-32.55 532.76-31.3L532.76-31.3 532.76-26.2Q532.76-24.9 533.51-23.88 534.26-22.85 536.11-22.85L536.11-22.85Z" opacity="1" transform="matrix(1,0,0,1,0,0)" fill="#4b91f1" class="undefined-text-1" data-fill-palette-color="secondary" id="text-1"></path></svg></g></svg></g></svg></g></svg></g><g transform="matrix(1,0,0,1,48.896,0)"><svg viewBox="0 0 158.208 41.60870279296875" height="41.60870279296875" width="158.208"><g><svg version="1.0" xmlns="http://www.w3.org/2000/svg" xmlns:xlink="http://www.w3.org/1999/xlink" x="0" y="0" viewBox="0 0 100 26.299999237060547" enable-background="new 0 0 100 26.299" xml:space="preserve" width="158.208" height="41.60870279296875" class="icon-icon-0" data-fill-palette-color="accent" id="icon-0"><path d="M76.849 19.098c-1.988 0-3.601 1.612-3.601 3.601s1.612 3.601 3.601 3.601c1.989 0 3.601-1.612 3.601-3.601S78.838 19.098 76.849 19.098zM76.849 24.784c-1.152 0-2.086-0.934-2.086-2.086s0.934-2.086 2.086-2.086 2.086 0.934 2.086 2.086S78.001 24.784 76.849 24.784z" fill="#4b91f1" data-fill-palette-color="accent"></path><path d="M17.502 19.098c-1.988 0-3.601 1.612-3.601 3.601s1.612 3.601 3.601 3.601 3.601-1.612 3.601-3.601S19.49 19.098 17.502 19.098zM17.502 24.784c-1.152 0-2.086-0.934-2.086-2.086s0.934-2.086 2.086-2.086 2.086 0.934 2.086 2.086S18.654 24.784 17.502 24.784z" fill="#4b91f1" data-fill-palette-color="accent"></path><circle cx="17.502" cy="22.624" r="0.72" fill="#4b91f1" data-fill-palette-color="accent"></circle><circle cx="76.849" cy="22.624" r="0.72" fill="#4b91f1" data-fill-palette-color="accent"></circle><rect x="18.905" width="26.163" height="3.874" fill="#4b91f1" data-fill-palette-color="accent"></rect><polygon points="17.502,0 14.175,2.93 14.175,3.874 18.458,3.874 18.458,0 " fill="#4b91f1" data-fill-palette-color="accent"></polygon><rect x="45.515" width="26.163" height="3.874" fill="#4b91f1" data-fill-palette-color="accent"></rect><polygon points="73.081,0 76.408,2.93 76.408,3.874 72.125,3.874 72.125,0 " fill="#4b91f1" data-fill-palette-color="accent"></polygon><path d="M100 21.316l-1.152-0.968L97.07 4.271H2.104v3.477H3.57c0 0-1.366 2.459-1.615 4.768l-0.757 9.329-1.049 0.059L0 24.138h13.113c-0.149-0.453-0.23-0.937-0.23-1.439 0-2.552 2.068-4.619 4.619-4.619s4.619 2.067 4.619 4.619c0 0.503-0.082 0.986-0.23 1.439h50.568c-0.148-0.453-0.229-0.937-0.229-1.439 0-2.552 2.068-4.619 4.619-4.619s4.619 2.067 4.619 4.619c0 0.503-0.082 0.986-0.23 1.439h5.303l12.24-1.37H100V21.316zM12.386 15.05c0 0.904-0.733 1.639-1.639 1.639H5.532c-0.905 0-1.64-0.734-1.64-1.639v-5.017c0-0.905 0.734-1.639 1.64-1.639h5.215c0.905 0 1.639 0.734 1.639 1.639V15.05zM80.282 8.394h7.351c0.872 0 1.583 0.681 1.635 1.54H78.648C78.7 9.075 79.411 8.394 80.282 8.394zM67.366 8.394h7.351c0.872 0 1.583 0.681 1.634 1.54H65.732C65.784 9.075 66.494 8.394 67.366 8.394zM54.288 8.394h7.675c0.871 0 1.582 0.681 1.634 1.54H52.654C52.706 9.075 53.417 8.394 54.288 8.394zM41.372 8.394h7.674c0.872 0 1.583 0.681 1.635 1.54H39.738C39.79 9.075 40.501 8.394 41.372 8.394zM28.456 8.394h7.674c0.872 0 1.583 0.681 1.635 1.54H26.822C26.874 9.075 27.585 8.394 28.456 8.394zM15.54 8.394h7.674c0.872 0 1.582 0.681 1.634 1.54H13.906C13.958 9.075 14.668 8.394 15.54 8.394zM23.214 16.688H15.54c-0.905 0-1.639-0.734-1.639-1.639v-4.521h10.951v4.521C24.853 15.954 24.119 16.688 23.214 16.688zM36.13 16.688h-7.674c-0.905 0-1.639-0.734-1.639-1.639v-4.521H37.77v4.521C37.77 15.954 37.035 16.688 36.13 16.688zM49.046 16.688h-7.674c-0.905 0-1.639-0.734-1.639-1.639v-4.521h10.952v4.521C50.686 15.954 49.951 16.688 49.046 16.688zM61.963 16.688h-7.675c-0.905 0-1.639-0.734-1.639-1.639v-4.521h10.952v4.521C63.602 15.954 62.867 16.688 61.963 16.688zM74.717 15.198h-7.351c-0.905 0-1.64-0.733-1.64-1.639v-3.03h10.63v3.03C76.356 14.465 75.622 15.198 74.717 15.198zM87.633 15.198h-7.351c-0.905 0-1.639-0.733-1.639-1.639v-3.03h10.629v3.03C89.272 14.465 88.538 15.198 87.633 15.198z" fill="#4b91f1" data-fill-palette-color="accent"></path></svg></g></svg></g><g></g></svg></g></svg></g></svg></g></svg></g><defs></defs></svg><rect width="512" height="320" fill="none" stroke="none" visibility="hidden"></rect></g></svg></g></svg>